<svg xmlns="http://www.w3.org/2000/svg" xmlns:xlink="http://www.w3.org/1999/xlink" xmlns:inkscape="http://www.inkscape.org/namespaces/inkscape" version="1.1" width="729.83" height="148.17" viewBox="56.83 224.83 729.83 148.17">
<defs>
<clipPath id="clip_1">
<path transform="matrix(1,0,0,-1,0,595.276)" d="M0 595.276H841.89V0H0Z"/>
</clipPath>
</defs>
<g inkscape:groupmode="layer" inkscape:label="Layer 1">
<path transform="matrix(1,0,0,-1,140.4882,224.8342)" d="M0 0H48.634L-21.523-80.834-73.209-78.994Z" fill="#ffffff"/>
<path transform="matrix(1,0,0,-1,56.9657,359.6618)" d="M0 0H67.049L16.351 57.225 85.105 134.828H0ZM113.406 0H134.827V134.828H131.449L62.673 57.225Z" fill="#a6ce38"/>
<path transform="matrix(1,0,0,-1,170.372,359.6618)" d="M0 0-50.733 57.225H-97.056L-46.357 0Z" fill="#231f20"/>
<g clip-path="url(#clip_1)">
<path transform="matrix(1,0,0,-1,0,595.276)" d="M768.084 284.065H782.897V370.44203H768.084ZM672.926 284.065H687.716V370.44203H672.926ZM701.181 335.433H701.137V327.927C701.137 321.059 702.954 315.999 706.791 312.633 710.675 309.233 716.51 307.684 724.388 307.684H759.151V308.156 319.41H728.494C719.539 319.489 718.35 322.451 718.125 326.513H718.147V331.058 332.37 332.684H758.59V343.894H718.147V356.943H759.892V368.153H701.181ZM506.017 296.879H588.225V308.044H506.017ZM294.01 363.507H304.03V301.424H294.01V296.329H309.843V368.579H294.01ZM220.756 363.507H230.731V368.579H214.954V296.329H230.731V301.424H220.756ZM229.43 317.413H255.453V295.971H267.549V317.413H293.639V325.559H229.43ZM231.764 340.572 234.703 332.348C240.674 333.279 246.116 335.097 251.054 337.745 256.249 340.472 259.795 343.535 261.736 346.924 263.868 343.557 267.617 340.472 273.036 337.599 278.31 334.805 283.517 333.043 288.725 332.348L291.439 340.472C285.055 341.784 279.746 344.028 275.573 347.069 271.264 350.266 268.795 353.981 268.212 358.233H287.781V366.448H235.242V358.233H254.768C253.646 349.291 245.948 343.389 231.764 340.572M437.857 316.527C449.304 316.527 459.155 316.089 465.283 317.626 471.768 319.298 474.978 322.282 477.178 324.392V307.493H492.844V370.06H477.178V337.913C477.178 334.906 474.777 332.796 472.486 331.371 470.849 330.316 469.301 329.307 465.283 328.499 461.266 327.736 455.184 327.298 447.081 327.298 442.929 327.298 439.653 327.467 437.162 327.736 434.716 328.016 433.481 329.071 433.481 330.889V338.89H462.522L464.901 362.217C465.372 366.525 463.285 368.725 458.774 368.725H418.242V358.828H446.588C448.227 358.828 449.012 357.875 449.012 356.08V348.596H417.86V328.353C417.86 321.609 420.869 317.885 426.905 317.098 429.778 316.717 433.46 316.527 437.857 316.527M356.098 357.751H377.688V338.205C377.688 335.164 377.643 332.684 377.576 330.788H356.232C356.154 332.684 356.098 335.164 356.098 338.205ZM340.702 343.725C340.702 339.159 340.949 334.805 341.454 330.788H329.907V320.588H403.767V330.788H392.231C392.815 334.805 393.084 339.159 393.084 343.725V357.751H404.867V367.906H328.808V357.751H340.702ZM324.678 296.879H409.06404V308.044H324.678ZM534.519 317.671H580.887V318.12 329.856H537.594C530.368 329.958 526.597 332.246 525.564 335.905V337.767H580.393V349.145H525.564V356.562H581.582V368.153H510.482V346.497H510.416V338.698C510.416 331.607 512.951 327.298 516.296 323.809 519.663 320.297 527.607 317.671 534.519 317.671M438.621 305.272V309.166 312.218H424.258V304.386C424.258 297.261 426.277 292.907 429.845 289.417 433.46 285.905 440.483 283.324 447.822 283.324H494.706V283.829 295.544H450.964C441.942 295.633 438.733 300.515 438.621 305.272M658.001 351.804C655.016 359.547 648.822 363.731 644.041 365.426 639.215 367.266 635.445 367.266 634.907 367.289 625.435 367.39 618.433 363.395 614.618 359.21 610.69 355.081 609.501 351.131 609.255 350.413L609.21 350.223 597.808 306.944H613.451L623.775 346.115C623.843 346.262 623.954 346.587 624.224 346.968 624.718 347.911 625.66 349.167 627.209 350.155 628.735 351.176 630.957 352.163 634.907 352.163H634.952C635.514 352.141 637.6 351.871 639.462 350.985 641.236 350.11 642.718 349.033 643.75 346.665L653.221 306.944H668.728L658.203 351.3Z" fill="#2f657a"/>
<path transform="matrix(1,0,0,-1,225.996,359.6057)" d="M0 0-10.189 33.336H-2.446L3.939 8.438H4.062L10.278 33.336H17.551L23.498 8.438H23.632L30.275 33.336H37.693L27.358 0H19.885L13.736 24.764H13.69L7.698 0Z" fill="#231f20"/>
<path transform="matrix(1,0,0,-1,275.5507,359.6057)" d="M0 0-10.201 33.336H-2.446L3.927 8.438H4.062L10.256 33.336H17.55L23.485 8.438H23.609L30.264 33.336H37.681L27.346 0H19.885L13.745 24.764H13.678L7.675 0Z" fill="#231f20"/>
<path transform="matrix(1,0,0,-1,325.1044,359.6057)" d="M0 0-10.212 33.336H-2.469L3.928 8.438H4.051L10.256 33.336H17.527L23.475 8.438H23.609L30.253 33.336H37.682L27.358 0H19.862L13.746 24.764H13.667L7.675 0Z" fill="#231f20"/>
<path transform="matrix(1,0,0,-1,0,595.276)" d="M368.576 235.67H377.41899V226.94H368.576Z" fill="#231f20"/>
<path transform="matrix(1,0,0,-1,401.5224,354.71363)" d="M0 0C3.3 0 5.634 1.223 7.002 3.714 8.394 6.172 9.067 8.853 9.067 11.737 9.067 14.8 8.326 17.526 6.778 19.938 5.252 22.33 3.008 23.519 0 23.519-3.074 23.519-5.364 22.475-6.89 20.32-8.461 18.166-9.224 15.305-9.224 11.737-9.224 8.37-8.416 5.577-6.822 3.355-5.206 1.1-2.939 0 0 0M-16.227-17.224V28.444H-9.358V23.934H-9.224C-8.236 25.818-6.822 27.198-4.96 28.063-3.142 28.927-1.145 29.354 .942 29.354 6.127 29.354 10.01 27.614 12.546 24.125 15.081 20.635 16.338 16.472 16.338 11.591 16.338 7.148 15.193 3.108 12.905-.472 10.594-4.04 7.024-5.801 2.177-5.801 .067-5.801-2.021-5.397-4.062-4.589-6.127-3.77-7.72-2.435-8.843-.595H-8.977V-17.224Z" fill="#231f20"/>
<path transform="matrix(1,0,0,-1,423.9208,359.6057)" d="M0 0V33.336H6.777V26.884H6.89C7.383 28.657 8.551 30.307 10.437 31.878 12.276 33.459 14.318 34.246 16.585 34.246 17.393 34.246 17.976 34.223 18.313 34.178 18.649 34.122 18.986 34.099 19.278 34.033V26.952C18.762 27.031 18.246 27.12 17.707 27.176 17.146 27.244 16.675 27.266 16.182 27.266 13.69 27.266 11.58 26.312 9.853 24.327 8.146 22.362 7.293 19.546 7.293 15.843V0Z" fill="#231f20"/>
<path transform="matrix(1,0,0,-1,0,595.276)" d="M446.565 269.007H453.859V235.67099H446.565ZM446.565 281.72H453.859V274.74H446.565Z" fill="#231f20"/>
<path transform="matrix(1,0,0,-1,461.7148,359.6057)" d="M0 0V33.336H6.845V28.411L6.957 28.298C8.102 30.161 9.561 31.62 11.333 32.675 13.106 33.718 15.126 34.246 17.303 34.246 20.871 34.246 23.722 33.292 25.81 31.384 27.896 29.443 28.974 26.626 28.974 22.89V0H21.679V20.937C21.635 23.585 21.096 25.471 20.041 26.671 18.986 27.838 17.37 28.411 15.239 28.411 12.838 28.411 10.907 27.603 9.448 25.886 8.012 24.181 7.294 22.104 7.294 19.669V0Z" fill="#231f20"/>
<path transform="matrix(1,0,0,-1,495.0194,331.7449)" d="M0 0V5.476H5.477V15.474H12.702V5.476H19.278V0H12.702V-17.83C12.702-19.311 12.883-20.455 13.242-21.219 13.601-21.981 14.588-22.363 16.182-22.363H17.73C18.246-22.341 18.762-22.25 19.278-22.127V-27.816C18.471-27.861 17.662-27.94 16.899-28.052 16.137-28.153 15.329-28.198 14.565-28.198 10.772-28.198 8.35-27.48 7.249-25.999 6.149-24.54 5.544-22.441 5.477-19.693V0Z" fill="#231f20"/>
<path transform="matrix(1,0,0,-1,534.1601,325.3601)" d="M0 0C3.838 0 7.204-.999 10.077-2.962 12.95-4.949 14.543-7.978 14.856-12.073H7.562C7.294-10.031 6.509-8.505 5.185-7.406 3.838-6.351 2.154-5.835 .157-5.835-1.773-5.835-3.748-6.576-5.835-8.079-7.899-9.583-8.955-12.859-8.955-17.953-8.955-20.702-8.281-23.283-6.957-25.718-5.634-28.153-3.389-29.354-.247-29.354 1.908-29.354 3.658-28.68 5.05-27.345 6.419-25.954 7.249-24.113 7.562-21.746H14.856C14.162-26.055 12.523-29.354 9.965-31.688 7.406-34.011 4.018-35.155-.247-35.155-5.409-35.155-9.358-33.505-12.097-30.229-14.813-26.93-16.181-22.846-16.181-17.953-16.181-12.903-14.834-8.651-12.142-5.207-9.472-1.74-5.409 0 0 0" fill="#231f20"/>
<path transform="matrix(1,0,0,-1,0,595.276)" d="M555.144 269.007H562.438V235.67099H555.144ZM555.144 281.72H562.438V274.74H555.144Z" fill="#231f20"/>
<path transform="matrix(1,0,0,-1,566.994,331.7449)" d="M0 0V5.476H5.499V15.474H12.726V5.476H19.302V0H12.726V-17.83C12.726-19.311 12.928-20.455 13.287-21.219 13.646-21.981 14.633-22.363 16.203-22.363H17.753C18.292-22.341 18.808-22.25 19.302-22.127V-27.816C18.494-27.861 17.708-27.94 16.944-28.052 16.137-28.153 15.373-28.198 14.588-28.198 10.817-28.198 8.372-27.48 7.273-25.999 6.195-24.54 5.589-22.441 5.499-19.693V0Z" fill="#231f20"/>
<path transform="matrix(1,0,0,-1,600.3671,359.4939)" d="M0 0-12.456 33.225H-4.511L4.04 8.326H4.197L12.568 33.225H20.199L7.339-1.907C6.194-4.948 4.915-7.618 3.479-9.919 2.065-12.208-.516-13.352-4.265-13.352-5.162-13.352-6.037-13.308-6.823-13.263-7.653-13.185-8.483-13.094-9.268-12.971V-6.755C-8.73-6.855-8.169-6.945-7.608-7.068-7.048-7.17-6.485-7.214-5.947-7.214-4.22-7.214-3.053-6.811-2.425-5.947-1.795-5.105-1.256-3.983-.853-2.581Z" fill="#231f20"/>
<path transform="matrix(1,0,0,-1,0,595.276)" d="M625.727 235.67H634.569V226.94H625.727Z" fill="#231f20"/>
<path transform="matrix(1,0,0,-1,656.8788,325.3601)" d="M0 0C3.815 0 7.182-.999 10.076-2.962 12.949-4.949 14.543-7.978 14.834-12.073H7.562C7.294-10.031 6.485-8.505 5.162-7.406 3.815-6.351 2.154-5.835 .134-5.835-1.773-5.835-3.749-6.576-5.836-8.079-7.923-9.583-8.978-12.859-8.978-17.953-8.978-20.702-8.281-23.283-6.981-25.718-5.611-28.153-3.39-29.354-.247-29.354 1.885-29.354 3.658-28.68 5.049-27.345 6.396-25.954 7.249-24.113 7.562-21.746H14.834C14.161-26.055 12.523-29.354 9.964-31.688 7.406-34.011 3.994-35.155-.247-35.155-5.432-35.155-9.358-33.505-12.074-30.229-14.835-26.93-16.204-22.846-16.204-17.953-16.204-12.903-14.857-8.651-12.164-5.207-9.472-1.74-5.432 0 0 0" fill="#231f20"/>
<path transform="matrix(1,0,0,-1,683.4062,342.8982)" d="M0 0C0-2.895 .741-5.577 2.244-8.079 3.771-10.569 6.126-11.815 9.358-11.815 12.613-11.815 15.015-10.569 16.473-8.079 17.977-5.577 18.718-2.895 18.718 0 18.718 2.861 17.977 5.543 16.473 8.023 15.015 10.491 12.613 11.703 9.358 11.703 6.126 11.703 3.771 10.491 2.244 8.023 .741 5.543 0 2.861 0 0M25.989 0C25.989-5.14 24.53-9.347 21.657-12.668 18.74-15.967 14.633-17.617 9.358-17.617 4.106-17.617 .023-15.967-2.873-12.668-5.768-9.347-7.249-5.14-7.249 0-7.249 5.117-5.768 9.313-2.873 12.589 .023 15.888 4.106 17.538 9.358 17.538 14.633 17.538 18.74 15.888 21.657 12.589 24.53 9.313 25.989 5.117 25.989 0" fill="#231f20"/>
<path transform="matrix(1,0,0,-1,0,595.276)" d="M716.622 235.67H725.465V226.94H716.622Z" fill="#231f20"/>
<path transform="matrix(1,0,0,-1,733.3417,359.6057)" d="M0 0V46.05H7.272V19.838L20.378 33.336H29.288L16.697 21.072 30.523 0H21.657L11.603 16.18 7.272 11.927V0Z" fill="#231f20"/>
<path transform="matrix(1,0,0,-1,767.3427,359.6057)" d="M0 0V33.336H6.777V26.884H6.89C7.361 28.657 8.528 30.307 10.413 31.878 12.276 33.459 14.341 34.246 16.562 34.246 17.371 34.246 17.978 34.223 18.313 34.178 18.649 34.122 18.987 34.099 19.278 34.033V26.952C18.785 27.031 18.225 27.12 17.708 27.176 17.146 27.244 16.652 27.266 16.182 27.266 13.69 27.266 11.581 26.312 9.853 24.327 8.147 22.362 7.294 19.546 7.294 15.843V0Z" fill="#231f20"/>
</g>
</g>
</svg>
